<mxfile host="app.diagrams.net" agent="Mozilla/5.0 (Windows NT 10.0; Win64; x64) AppleWebKit/537.36 (KHTML, like Gecko) Chrome/136.0.0.0 Safari/537.36" version="27.0.9">
  <diagram name="Página-1" id="U-HVunWLTnur9f-tyaoY">
    <mxGraphModel grid="1" page="1" gridSize="10" guides="1" tooltips="1" connect="1" arrows="1" fold="1" pageScale="1" pageWidth="827" pageHeight="1169" math="0" shadow="0">
      <root>
        <mxCell id="0" />
        <mxCell id="1" parent="0" />
        <mxCell id="OsixGhSiKTi9ODkyEVCV-1" value="rule_exists(dest, tid)" style="shape=trapezoid;perimeter=trapezoidPerimeter;fixedSize=1;strokeWidth=2;whiteSpace=wrap;" vertex="1" parent="1">
          <mxGeometry x="117" y="10" width="204" height="39" as="geometry" />
        </mxCell>
        <mxCell id="OsixGhSiKTi9ODkyEVCV-2" value="cmd = &#39;ip -6 rule show to {dest}/64&#39;" style="whiteSpace=wrap;strokeWidth=2;" vertex="1" parent="1">
          <mxGeometry x="89" y="80" width="260" height="78" as="geometry" />
        </mxCell>
        <mxCell id="OsixGhSiKTi9ODkyEVCV-3" value="ssh_ru(cmd)" style="whiteSpace=wrap;strokeWidth=2;" vertex="1" parent="1">
          <mxGeometry x="145.5" y="200" width="147" height="54" as="geometry" />
        </mxCell>
        <mxCell id="OsixGhSiKTi9ODkyEVCV-4" value="¿returncode != 0?" style="rhombus;strokeWidth=2;whiteSpace=wrap;" vertex="1" parent="1">
          <mxGeometry x="131" y="300" width="177" height="177" as="geometry" />
        </mxCell>
        <mxCell id="OsixGhSiKTi9ODkyEVCV-5" value="Retornar False" style="whiteSpace=wrap;strokeWidth=2;" vertex="1" parent="1">
          <mxGeometry x="10" y="521.88" width="163" height="54" as="geometry" />
        </mxCell>
        <mxCell id="OsixGhSiKTi9ODkyEVCV-6" value="Buscar &#39;lookup tunnel{tid}&#39;&#xa;        en líneas de salida" style="whiteSpace=wrap;strokeWidth=2;" vertex="1" parent="1">
          <mxGeometry x="224" y="509.88" width="247" height="78" as="geometry" />
        </mxCell>
        <mxCell id="OsixGhSiKTi9ODkyEVCV-7" value="Retornar resultado búsqueda" style="whiteSpace=wrap;strokeWidth=2;" vertex="1" parent="1">
          <mxGeometry x="237.5" y="620" width="220" height="70" as="geometry" />
        </mxCell>
        <mxCell id="OsixGhSiKTi9ODkyEVCV-8" value="" style="curved=1;startArrow=none;endArrow=block;exitX=0.5;exitY=1;entryX=0.5;entryY=-0.01;rounded=0;exitDx=0;exitDy=0;" edge="1" parent="1" source="OsixGhSiKTi9ODkyEVCV-1" target="OsixGhSiKTi9ODkyEVCV-2">
          <mxGeometry relative="1" as="geometry">
            <Array as="points" />
          </mxGeometry>
        </mxCell>
        <mxCell id="OsixGhSiKTi9ODkyEVCV-9" value="" style="curved=1;startArrow=none;endArrow=block;exitX=0.5;exitY=0.99;entryX=0.5;entryY=-0.01;rounded=0;" edge="1" parent="1" source="OsixGhSiKTi9ODkyEVCV-2" target="OsixGhSiKTi9ODkyEVCV-3">
          <mxGeometry relative="1" as="geometry">
            <Array as="points" />
          </mxGeometry>
        </mxCell>
        <mxCell id="OsixGhSiKTi9ODkyEVCV-10" value="" style="curved=1;startArrow=none;endArrow=block;exitX=0.5;exitY=0.99;entryX=0.5;entryY=0;rounded=0;" edge="1" parent="1" source="OsixGhSiKTi9ODkyEVCV-3" target="OsixGhSiKTi9ODkyEVCV-4">
          <mxGeometry relative="1" as="geometry">
            <Array as="points" />
          </mxGeometry>
        </mxCell>
        <mxCell id="OsixGhSiKTi9ODkyEVCV-11" value="Sí" style="curved=1;startArrow=none;endArrow=block;exitX=0;exitY=1;entryX=0.5;entryY=0;rounded=0;exitDx=0;exitDy=0;" edge="1" parent="1" source="OsixGhSiKTi9ODkyEVCV-4" target="OsixGhSiKTi9ODkyEVCV-5">
          <mxGeometry relative="1" as="geometry">
            <Array as="points">
              <mxPoint x="110" y="470" />
            </Array>
            <mxPoint x="176.6185567010309" y="369.9985567010309" as="sourcePoint" />
          </mxGeometry>
        </mxCell>
        <mxCell id="OsixGhSiKTi9ODkyEVCV-12" value="No" style="curved=1;startArrow=none;endArrow=block;exitX=1;exitY=1;entryX=0.5;entryY=0;rounded=0;exitDx=0;exitDy=0;" edge="1" parent="1" source="OsixGhSiKTi9ODkyEVCV-4" target="OsixGhSiKTi9ODkyEVCV-6">
          <mxGeometry relative="1" as="geometry">
            <Array as="points">
              <mxPoint x="320" y="460" />
            </Array>
            <mxPoint x="261.90625" y="370.47375" as="sourcePoint" />
          </mxGeometry>
        </mxCell>
        <mxCell id="OsixGhSiKTi9ODkyEVCV-13" value="" style="curved=1;startArrow=none;endArrow=block;exitX=0.5;exitY=1;entryX=0.5;entryY=0;rounded=0;" edge="1" parent="1" source="OsixGhSiKTi9ODkyEVCV-6" target="OsixGhSiKTi9ODkyEVCV-7">
          <mxGeometry relative="1" as="geometry">
            <Array as="points" />
          </mxGeometry>
        </mxCell>
      </root>
    </mxGraphModel>
  </diagram>
</mxfile>
